<mxfile host="app.diagrams.net" modified="2023-05-01T21:31:35.661Z" agent="Mozilla/5.0 (Windows NT 10.0; Win64; x64; rv:109.0) Gecko/20100101 Firefox/112.0" etag="Ji8IOdLludml72dgtt3M" version="21.2.3">
  <diagram name="Page-1" id="UMul8PFKgs4JPzF9aLLQ">
    <mxGraphModel dx="1562" dy="854" grid="1" gridSize="10" guides="1" tooltips="1" connect="1" arrows="1" fold="1" page="1" pageScale="1" pageWidth="827" pageHeight="1169" math="0" shadow="0">
      <root>
        <mxCell id="0" />
        <mxCell id="1" parent="0" />
        <mxCell id="VbtQJIsyjudvQoeWFnfu-1" value="Exercise" style="swimlane;fontStyle=1;align=center;verticalAlign=top;childLayout=stackLayout;horizontal=1;startSize=26;horizontalStack=0;resizeParent=1;resizeParentMax=0;resizeLast=0;collapsible=1;marginBottom=0;whiteSpace=wrap;html=1;fillColor=#f8cecc;strokeColor=#b85450;" vertex="1" parent="1">
          <mxGeometry x="270" y="310" width="160" height="150" as="geometry" />
        </mxCell>
        <mxCell id="VbtQJIsyjudvQoeWFnfu-2" value="&lt;div&gt;- startTime&lt;/div&gt;&lt;div&gt;- endTime&lt;/div&gt;&lt;div&gt;- activityName&lt;/div&gt;&lt;div&gt;- timeTake&lt;br&gt;&lt;/div&gt;" style="text;strokeColor=none;fillColor=none;align=left;verticalAlign=top;spacingLeft=4;spacingRight=4;overflow=hidden;rotatable=0;points=[[0,0.5],[1,0.5]];portConstraint=eastwest;whiteSpace=wrap;html=1;" vertex="1" parent="VbtQJIsyjudvQoeWFnfu-1">
          <mxGeometry y="26" width="160" height="64" as="geometry" />
        </mxCell>
        <mxCell id="VbtQJIsyjudvQoeWFnfu-3" value="" style="line;strokeWidth=1;fillColor=none;align=left;verticalAlign=middle;spacingTop=-1;spacingLeft=3;spacingRight=3;rotatable=0;labelPosition=right;points=[];portConstraint=eastwest;strokeColor=inherit;" vertex="1" parent="VbtQJIsyjudvQoeWFnfu-1">
          <mxGeometry y="90" width="160" height="8" as="geometry" />
        </mxCell>
        <mxCell id="VbtQJIsyjudvQoeWFnfu-4" value="&lt;div&gt;+ updateData()&lt;/div&gt;&lt;div&gt;+ getExercise()&lt;/div&gt;&lt;div&gt;+ setExercise()&lt;br&gt;&lt;/div&gt;" style="text;strokeColor=none;fillColor=none;align=left;verticalAlign=top;spacingLeft=4;spacingRight=4;overflow=hidden;rotatable=0;points=[[0,0.5],[1,0.5]];portConstraint=eastwest;whiteSpace=wrap;html=1;" vertex="1" parent="VbtQJIsyjudvQoeWFnfu-1">
          <mxGeometry y="98" width="160" height="52" as="geometry" />
        </mxCell>
        <mxCell id="VbtQJIsyjudvQoeWFnfu-5" value="&lt;b&gt;Swing GUI Library&lt;/b&gt;" style="html=1;whiteSpace=wrap;fillColor=#f5f5f5;fontColor=#333333;strokeColor=#666666;" vertex="1" parent="1">
          <mxGeometry x="40" y="40" width="115" height="50" as="geometry" />
        </mxCell>
        <mxCell id="VbtQJIsyjudvQoeWFnfu-6" value="Food" style="swimlane;fontStyle=1;align=center;verticalAlign=top;childLayout=stackLayout;horizontal=1;startSize=26;horizontalStack=0;resizeParent=1;resizeParentMax=0;resizeLast=0;collapsible=1;marginBottom=0;whiteSpace=wrap;html=1;fillColor=#f8cecc;strokeColor=#b85450;" vertex="1" parent="1">
          <mxGeometry x="270" y="480" width="160" height="130" as="geometry" />
        </mxCell>
        <mxCell id="VbtQJIsyjudvQoeWFnfu-7" value="&lt;div&gt;- mealName&lt;/div&gt;&lt;div&gt;- calories&lt;/div&gt;&lt;div&gt;- dateEaten&lt;br&gt;&lt;/div&gt;" style="text;strokeColor=none;fillColor=none;align=left;verticalAlign=top;spacingLeft=4;spacingRight=4;overflow=hidden;rotatable=0;points=[[0,0.5],[1,0.5]];portConstraint=eastwest;whiteSpace=wrap;html=1;" vertex="1" parent="VbtQJIsyjudvQoeWFnfu-6">
          <mxGeometry y="26" width="160" height="54" as="geometry" />
        </mxCell>
        <mxCell id="VbtQJIsyjudvQoeWFnfu-8" value="" style="line;strokeWidth=1;fillColor=none;align=left;verticalAlign=middle;spacingTop=-1;spacingLeft=3;spacingRight=3;rotatable=0;labelPosition=right;points=[];portConstraint=eastwest;strokeColor=inherit;" vertex="1" parent="VbtQJIsyjudvQoeWFnfu-6">
          <mxGeometry y="80" width="160" height="8" as="geometry" />
        </mxCell>
        <mxCell id="VbtQJIsyjudvQoeWFnfu-9" value="&lt;div&gt;+ getFood()&lt;/div&gt;&lt;div&gt;+ setFood()&lt;br&gt;&lt;/div&gt;" style="text;strokeColor=none;fillColor=none;align=left;verticalAlign=top;spacingLeft=4;spacingRight=4;overflow=hidden;rotatable=0;points=[[0,0.5],[1,0.5]];portConstraint=eastwest;whiteSpace=wrap;html=1;" vertex="1" parent="VbtQJIsyjudvQoeWFnfu-6">
          <mxGeometry y="88" width="160" height="42" as="geometry" />
        </mxCell>
        <mxCell id="VbtQJIsyjudvQoeWFnfu-10" value="Sleep" style="swimlane;fontStyle=1;align=center;verticalAlign=top;childLayout=stackLayout;horizontal=1;startSize=26;horizontalStack=0;resizeParent=1;resizeParentMax=0;resizeLast=0;collapsible=1;marginBottom=0;whiteSpace=wrap;html=1;fillColor=#f8cecc;strokeColor=#b85450;" vertex="1" parent="1">
          <mxGeometry x="270" y="630" width="160" height="140" as="geometry" />
        </mxCell>
        <mxCell id="VbtQJIsyjudvQoeWFnfu-11" value="&lt;div&gt;- startTime&lt;/div&gt;&lt;div&gt;- endTime&lt;/div&gt;&lt;div&gt;- date&lt;br&gt;&lt;/div&gt;" style="text;strokeColor=none;fillColor=none;align=left;verticalAlign=top;spacingLeft=4;spacingRight=4;overflow=hidden;rotatable=0;points=[[0,0.5],[1,0.5]];portConstraint=eastwest;whiteSpace=wrap;html=1;" vertex="1" parent="VbtQJIsyjudvQoeWFnfu-10">
          <mxGeometry y="26" width="160" height="54" as="geometry" />
        </mxCell>
        <mxCell id="VbtQJIsyjudvQoeWFnfu-12" value="" style="line;strokeWidth=1;fillColor=none;align=left;verticalAlign=middle;spacingTop=-1;spacingLeft=3;spacingRight=3;rotatable=0;labelPosition=right;points=[];portConstraint=eastwest;strokeColor=inherit;" vertex="1" parent="VbtQJIsyjudvQoeWFnfu-10">
          <mxGeometry y="80" width="160" height="8" as="geometry" />
        </mxCell>
        <mxCell id="VbtQJIsyjudvQoeWFnfu-13" value="&lt;div&gt;+ calculateTime()&lt;br&gt;&lt;/div&gt;&lt;div&gt;+ getSleep()&lt;/div&gt;&lt;div&gt;+ setSleep()&lt;br&gt;&lt;/div&gt;" style="text;strokeColor=none;fillColor=none;align=left;verticalAlign=top;spacingLeft=4;spacingRight=4;overflow=hidden;rotatable=0;points=[[0,0.5],[1,0.5]];portConstraint=eastwest;whiteSpace=wrap;html=1;" vertex="1" parent="VbtQJIsyjudvQoeWFnfu-10">
          <mxGeometry y="88" width="160" height="52" as="geometry" />
        </mxCell>
        <mxCell id="VbtQJIsyjudvQoeWFnfu-14" value="Goals" style="swimlane;fontStyle=1;align=center;verticalAlign=top;childLayout=stackLayout;horizontal=1;startSize=26;horizontalStack=0;resizeParent=1;resizeParentMax=0;resizeLast=0;collapsible=1;marginBottom=0;whiteSpace=wrap;html=1;fillColor=#f8cecc;strokeColor=#b85450;" vertex="1" parent="1">
          <mxGeometry x="40" y="705" width="160" height="160" as="geometry" />
        </mxCell>
        <mxCell id="VbtQJIsyjudvQoeWFnfu-15" value="&lt;div&gt;- startTime&lt;/div&gt;&lt;div&gt;- expireTime&lt;/div&gt;&lt;div&gt;- date&lt;br&gt;&lt;/div&gt;" style="text;strokeColor=none;fillColor=none;align=left;verticalAlign=top;spacingLeft=4;spacingRight=4;overflow=hidden;rotatable=0;points=[[0,0.5],[1,0.5]];portConstraint=eastwest;whiteSpace=wrap;html=1;" vertex="1" parent="VbtQJIsyjudvQoeWFnfu-14">
          <mxGeometry y="26" width="160" height="54" as="geometry" />
        </mxCell>
        <mxCell id="VbtQJIsyjudvQoeWFnfu-16" value="" style="line;strokeWidth=1;fillColor=none;align=left;verticalAlign=middle;spacingTop=-1;spacingLeft=3;spacingRight=3;rotatable=0;labelPosition=right;points=[];portConstraint=eastwest;strokeColor=inherit;" vertex="1" parent="VbtQJIsyjudvQoeWFnfu-14">
          <mxGeometry y="80" width="160" height="8" as="geometry" />
        </mxCell>
        <mxCell id="VbtQJIsyjudvQoeWFnfu-17" value="&lt;div&gt;+ updateGoal()&lt;/div&gt;&lt;div&gt;+ deleteGoal()&lt;/div&gt;&lt;div&gt;+ getGoal()&lt;/div&gt;&lt;div&gt;+ setGoal()&lt;br&gt;&lt;/div&gt;" style="text;strokeColor=none;fillColor=none;align=left;verticalAlign=top;spacingLeft=4;spacingRight=4;overflow=hidden;rotatable=0;points=[[0,0.5],[1,0.5]];portConstraint=eastwest;whiteSpace=wrap;html=1;" vertex="1" parent="VbtQJIsyjudvQoeWFnfu-14">
          <mxGeometry y="88" width="160" height="72" as="geometry" />
        </mxCell>
        <mxCell id="VbtQJIsyjudvQoeWFnfu-18" value="Steps" style="swimlane;fontStyle=1;align=center;verticalAlign=top;childLayout=stackLayout;horizontal=1;startSize=26;horizontalStack=0;resizeParent=1;resizeParentMax=0;resizeLast=0;collapsible=1;marginBottom=0;whiteSpace=wrap;html=1;fillColor=#f8cecc;strokeColor=#b85450;" vertex="1" parent="1">
          <mxGeometry x="270" y="790" width="160" height="120" as="geometry" />
        </mxCell>
        <mxCell id="VbtQJIsyjudvQoeWFnfu-19" value="&lt;div&gt;- stepCount&lt;/div&gt;&lt;div&gt;- date&lt;br&gt;&lt;/div&gt;" style="text;strokeColor=none;fillColor=none;align=left;verticalAlign=top;spacingLeft=4;spacingRight=4;overflow=hidden;rotatable=0;points=[[0,0.5],[1,0.5]];portConstraint=eastwest;whiteSpace=wrap;html=1;" vertex="1" parent="VbtQJIsyjudvQoeWFnfu-18">
          <mxGeometry y="26" width="160" height="44" as="geometry" />
        </mxCell>
        <mxCell id="VbtQJIsyjudvQoeWFnfu-20" value="" style="line;strokeWidth=1;fillColor=none;align=left;verticalAlign=middle;spacingTop=-1;spacingLeft=3;spacingRight=3;rotatable=0;labelPosition=right;points=[];portConstraint=eastwest;strokeColor=inherit;" vertex="1" parent="VbtQJIsyjudvQoeWFnfu-18">
          <mxGeometry y="70" width="160" height="8" as="geometry" />
        </mxCell>
        <mxCell id="VbtQJIsyjudvQoeWFnfu-21" value="&lt;div&gt;+ getSteps()&lt;/div&gt;&lt;div&gt;+ setSteps()&lt;br&gt;&lt;/div&gt;" style="text;strokeColor=none;fillColor=none;align=left;verticalAlign=top;spacingLeft=4;spacingRight=4;overflow=hidden;rotatable=0;points=[[0,0.5],[1,0.5]];portConstraint=eastwest;whiteSpace=wrap;html=1;" vertex="1" parent="VbtQJIsyjudvQoeWFnfu-18">
          <mxGeometry y="78" width="160" height="42" as="geometry" />
        </mxCell>
        <mxCell id="VbtQJIsyjudvQoeWFnfu-22" value="Weight" style="swimlane;fontStyle=1;align=center;verticalAlign=top;childLayout=stackLayout;horizontal=1;startSize=26;horizontalStack=0;resizeParent=1;resizeParentMax=0;resizeLast=0;collapsible=1;marginBottom=0;whiteSpace=wrap;html=1;fillColor=#f8cecc;strokeColor=#b85450;" vertex="1" parent="1">
          <mxGeometry x="270" y="930" width="160" height="120" as="geometry" />
        </mxCell>
        <mxCell id="VbtQJIsyjudvQoeWFnfu-23" value="&lt;div&gt;- weight&lt;/div&gt;&lt;div&gt;- date&lt;br&gt;&lt;/div&gt;" style="text;strokeColor=none;fillColor=none;align=left;verticalAlign=top;spacingLeft=4;spacingRight=4;overflow=hidden;rotatable=0;points=[[0,0.5],[1,0.5]];portConstraint=eastwest;whiteSpace=wrap;html=1;" vertex="1" parent="VbtQJIsyjudvQoeWFnfu-22">
          <mxGeometry y="26" width="160" height="44" as="geometry" />
        </mxCell>
        <mxCell id="VbtQJIsyjudvQoeWFnfu-24" value="" style="line;strokeWidth=1;fillColor=none;align=left;verticalAlign=middle;spacingTop=-1;spacingLeft=3;spacingRight=3;rotatable=0;labelPosition=right;points=[];portConstraint=eastwest;strokeColor=inherit;" vertex="1" parent="VbtQJIsyjudvQoeWFnfu-22">
          <mxGeometry y="70" width="160" height="8" as="geometry" />
        </mxCell>
        <mxCell id="VbtQJIsyjudvQoeWFnfu-25" value="&lt;div&gt;+ getWeight()&lt;/div&gt;&lt;div&gt;+ setWeight()&lt;br&gt;&lt;/div&gt;" style="text;strokeColor=none;fillColor=none;align=left;verticalAlign=top;spacingLeft=4;spacingRight=4;overflow=hidden;rotatable=0;points=[[0,0.5],[1,0.5]];portConstraint=eastwest;whiteSpace=wrap;html=1;" vertex="1" parent="VbtQJIsyjudvQoeWFnfu-22">
          <mxGeometry y="78" width="160" height="42" as="geometry" />
        </mxCell>
        <mxCell id="VbtQJIsyjudvQoeWFnfu-26" value="GraphicalPage" style="swimlane;fontStyle=1;align=center;verticalAlign=top;childLayout=stackLayout;horizontal=1;startSize=26;horizontalStack=0;resizeParent=1;resizeParentMax=0;resizeLast=0;collapsible=1;marginBottom=0;whiteSpace=wrap;html=1;fillColor=#f8cecc;strokeColor=#b85450;" vertex="1" parent="1">
          <mxGeometry x="40" y="530" width="160" height="130" as="geometry" />
        </mxCell>
        <mxCell id="VbtQJIsyjudvQoeWFnfu-27" value="&lt;div&gt;- graphicalPanel&lt;/div&gt;&lt;div&gt;- backButton&lt;/div&gt;&lt;div&gt;- newButton&lt;br&gt;&lt;/div&gt;" style="text;strokeColor=none;fillColor=none;align=left;verticalAlign=top;spacingLeft=4;spacingRight=4;overflow=hidden;rotatable=0;points=[[0,0.5],[1,0.5]];portConstraint=eastwest;whiteSpace=wrap;html=1;" vertex="1" parent="VbtQJIsyjudvQoeWFnfu-26">
          <mxGeometry y="26" width="160" height="54" as="geometry" />
        </mxCell>
        <mxCell id="VbtQJIsyjudvQoeWFnfu-28" value="" style="line;strokeWidth=1;fillColor=none;align=left;verticalAlign=middle;spacingTop=-1;spacingLeft=3;spacingRight=3;rotatable=0;labelPosition=right;points=[];portConstraint=eastwest;strokeColor=inherit;" vertex="1" parent="VbtQJIsyjudvQoeWFnfu-26">
          <mxGeometry y="80" width="160" height="8" as="geometry" />
        </mxCell>
        <mxCell id="VbtQJIsyjudvQoeWFnfu-29" value="&lt;div&gt;+ displayPage()&lt;br&gt;&lt;/div&gt;&lt;div&gt;+ showGraph()&lt;/div&gt;" style="text;strokeColor=none;fillColor=none;align=left;verticalAlign=top;spacingLeft=4;spacingRight=4;overflow=hidden;rotatable=0;points=[[0,0.5],[1,0.5]];portConstraint=eastwest;whiteSpace=wrap;html=1;" vertex="1" parent="VbtQJIsyjudvQoeWFnfu-26">
          <mxGeometry y="88" width="160" height="42" as="geometry" />
        </mxCell>
        <mxCell id="VbtQJIsyjudvQoeWFnfu-30" value="Login" style="swimlane;fontStyle=1;align=center;verticalAlign=top;childLayout=stackLayout;horizontal=1;startSize=26;horizontalStack=0;resizeParent=1;resizeParentMax=0;resizeLast=0;collapsible=1;marginBottom=0;whiteSpace=wrap;html=1;fillColor=#dae8fc;strokeColor=#6c8ebf;" vertex="1" parent="1">
          <mxGeometry x="270" y="30" width="160" height="100" as="geometry" />
        </mxCell>
        <mxCell id="VbtQJIsyjudvQoeWFnfu-31" value="- user_id" style="text;strokeColor=none;fillColor=none;align=left;verticalAlign=top;spacingLeft=4;spacingRight=4;overflow=hidden;rotatable=0;points=[[0,0.5],[1,0.5]];portConstraint=eastwest;whiteSpace=wrap;html=1;" vertex="1" parent="VbtQJIsyjudvQoeWFnfu-30">
          <mxGeometry y="26" width="160" height="26" as="geometry" />
        </mxCell>
        <mxCell id="VbtQJIsyjudvQoeWFnfu-32" value="" style="line;strokeWidth=1;fillColor=none;align=left;verticalAlign=middle;spacingTop=-1;spacingLeft=3;spacingRight=3;rotatable=0;labelPosition=right;points=[];portConstraint=eastwest;strokeColor=inherit;" vertex="1" parent="VbtQJIsyjudvQoeWFnfu-30">
          <mxGeometry y="52" width="160" height="8" as="geometry" />
        </mxCell>
        <mxCell id="VbtQJIsyjudvQoeWFnfu-33" value="&lt;div&gt;+ getEmail()&lt;/div&gt;&lt;div&gt;+ checkDetails()&lt;br&gt;&lt;/div&gt;" style="text;strokeColor=none;fillColor=none;align=left;verticalAlign=top;spacingLeft=4;spacingRight=4;overflow=hidden;rotatable=0;points=[[0,0.5],[1,0.5]];portConstraint=eastwest;whiteSpace=wrap;html=1;" vertex="1" parent="VbtQJIsyjudvQoeWFnfu-30">
          <mxGeometry y="60" width="160" height="40" as="geometry" />
        </mxCell>
        <mxCell id="VbtQJIsyjudvQoeWFnfu-34" value="SignUp" style="swimlane;fontStyle=1;align=center;verticalAlign=top;childLayout=stackLayout;horizontal=1;startSize=26;horizontalStack=0;resizeParent=1;resizeParentMax=0;resizeLast=0;collapsible=1;marginBottom=0;whiteSpace=wrap;html=1;fillColor=#dae8fc;strokeColor=#6c8ebf;" vertex="1" parent="1">
          <mxGeometry x="270" y="150" width="160" height="134" as="geometry" />
        </mxCell>
        <mxCell id="VbtQJIsyjudvQoeWFnfu-36" value="" style="line;strokeWidth=1;fillColor=none;align=left;verticalAlign=middle;spacingTop=-1;spacingLeft=3;spacingRight=3;rotatable=0;labelPosition=right;points=[];portConstraint=eastwest;strokeColor=inherit;" vertex="1" parent="VbtQJIsyjudvQoeWFnfu-34">
          <mxGeometry y="26" width="160" height="8" as="geometry" />
        </mxCell>
        <mxCell id="VbtQJIsyjudvQoeWFnfu-37" value="&lt;div&gt;+ createUserID()&lt;/div&gt;&lt;div&gt;+ getEmail()&lt;/div&gt;&lt;div&gt;+ setEmail()&lt;/div&gt;&lt;div&gt;+ getPassword()&lt;/div&gt;&lt;div&gt;+ setPassword()&lt;/div&gt;&lt;div&gt;+ validateInput()&lt;br&gt;&lt;/div&gt;" style="text;strokeColor=none;fillColor=none;align=left;verticalAlign=top;spacingLeft=4;spacingRight=4;overflow=hidden;rotatable=0;points=[[0,0.5],[1,0.5]];portConstraint=eastwest;whiteSpace=wrap;html=1;" vertex="1" parent="VbtQJIsyjudvQoeWFnfu-34">
          <mxGeometry y="34" width="160" height="100" as="geometry" />
        </mxCell>
        <mxCell id="VbtQJIsyjudvQoeWFnfu-38" value="" style="endArrow=open;endFill=1;endSize=12;html=1;rounded=0;exitX=0;exitY=0.5;exitDx=0;exitDy=0;entryX=1;entryY=0.5;entryDx=0;entryDy=0;" edge="1" parent="1" source="VbtQJIsyjudvQoeWFnfu-2" target="VbtQJIsyjudvQoeWFnfu-27">
          <mxGeometry width="160" relative="1" as="geometry">
            <mxPoint x="520" y="490" as="sourcePoint" />
            <mxPoint x="680" y="490" as="targetPoint" />
            <Array as="points">
              <mxPoint x="240" y="368" />
              <mxPoint x="240" y="583" />
            </Array>
          </mxGeometry>
        </mxCell>
        <mxCell id="VbtQJIsyjudvQoeWFnfu-39" value="" style="endArrow=open;endFill=1;endSize=12;html=1;rounded=0;exitX=0;exitY=0.5;exitDx=0;exitDy=0;entryX=1;entryY=0.5;entryDx=0;entryDy=0;" edge="1" parent="1" source="VbtQJIsyjudvQoeWFnfu-7" target="VbtQJIsyjudvQoeWFnfu-27">
          <mxGeometry width="160" relative="1" as="geometry">
            <mxPoint x="670" y="680" as="sourcePoint" />
            <mxPoint x="830" y="680" as="targetPoint" />
            <Array as="points">
              <mxPoint x="240" y="533" />
              <mxPoint x="240" y="583" />
            </Array>
          </mxGeometry>
        </mxCell>
        <mxCell id="VbtQJIsyjudvQoeWFnfu-40" value="" style="endArrow=open;endFill=1;endSize=12;html=1;rounded=0;exitX=0;exitY=0.5;exitDx=0;exitDy=0;entryX=1;entryY=0.5;entryDx=0;entryDy=0;" edge="1" parent="1" source="VbtQJIsyjudvQoeWFnfu-11" target="VbtQJIsyjudvQoeWFnfu-27">
          <mxGeometry width="160" relative="1" as="geometry">
            <mxPoint x="70" y="940" as="sourcePoint" />
            <mxPoint x="230" y="940" as="targetPoint" />
            <Array as="points">
              <mxPoint x="240" y="683" />
              <mxPoint x="240" y="583" />
            </Array>
          </mxGeometry>
        </mxCell>
        <mxCell id="VbtQJIsyjudvQoeWFnfu-41" value="" style="endArrow=open;endFill=1;endSize=12;html=1;rounded=0;exitX=0;exitY=0.5;exitDx=0;exitDy=0;entryX=1;entryY=0.5;entryDx=0;entryDy=0;" edge="1" parent="1" source="VbtQJIsyjudvQoeWFnfu-19" target="VbtQJIsyjudvQoeWFnfu-27">
          <mxGeometry width="160" relative="1" as="geometry">
            <mxPoint x="650" y="930" as="sourcePoint" />
            <mxPoint x="810" y="930" as="targetPoint" />
            <Array as="points">
              <mxPoint x="240" y="840" />
              <mxPoint x="240" y="583" />
            </Array>
          </mxGeometry>
        </mxCell>
        <mxCell id="VbtQJIsyjudvQoeWFnfu-42" value="" style="endArrow=open;endFill=1;endSize=12;html=1;rounded=0;exitX=0;exitY=0.5;exitDx=0;exitDy=0;entryX=1;entryY=0.5;entryDx=0;entryDy=0;" edge="1" parent="1" source="VbtQJIsyjudvQoeWFnfu-23" target="VbtQJIsyjudvQoeWFnfu-27">
          <mxGeometry width="160" relative="1" as="geometry">
            <mxPoint x="590" y="1080" as="sourcePoint" />
            <mxPoint x="750" y="1080" as="targetPoint" />
            <Array as="points">
              <mxPoint x="240" y="980" />
              <mxPoint x="240" y="583" />
            </Array>
          </mxGeometry>
        </mxCell>
        <mxCell id="VbtQJIsyjudvQoeWFnfu-43" value="" style="endArrow=open;endFill=1;endSize=12;html=1;rounded=0;exitX=0.5;exitY=0;exitDx=0;exitDy=0;entryX=0.5;entryY=0.952;entryDx=0;entryDy=0;entryPerimeter=0;" edge="1" parent="1" source="VbtQJIsyjudvQoeWFnfu-14" target="VbtQJIsyjudvQoeWFnfu-29">
          <mxGeometry width="160" relative="1" as="geometry">
            <mxPoint x="20" y="950" as="sourcePoint" />
            <mxPoint x="180" y="950" as="targetPoint" />
          </mxGeometry>
        </mxCell>
        <mxCell id="VbtQJIsyjudvQoeWFnfu-44" value="" style="endArrow=open;endFill=1;endSize=12;html=1;rounded=0;exitX=0.5;exitY=0;exitDx=0;exitDy=0;entryX=0.5;entryY=1;entryDx=0;entryDy=0;" edge="1" parent="1" source="VbtQJIsyjudvQoeWFnfu-26" target="VbtQJIsyjudvQoeWFnfu-5">
          <mxGeometry width="160" relative="1" as="geometry">
            <mxPoint x="40" y="400" as="sourcePoint" />
            <mxPoint x="200" y="400" as="targetPoint" />
            <Array as="points">
              <mxPoint x="120" y="360" />
              <mxPoint x="98" y="360" />
            </Array>
          </mxGeometry>
        </mxCell>
        <mxCell id="VbtQJIsyjudvQoeWFnfu-45" value="" style="endArrow=open;endFill=1;endSize=12;html=1;rounded=0;exitX=0;exitY=0.5;exitDx=0;exitDy=0;entryX=1;entryY=0.5;entryDx=0;entryDy=0;" edge="1" parent="1" source="VbtQJIsyjudvQoeWFnfu-31" target="VbtQJIsyjudvQoeWFnfu-5">
          <mxGeometry width="160" relative="1" as="geometry">
            <mxPoint x="610" y="130" as="sourcePoint" />
            <mxPoint x="770" y="130" as="targetPoint" />
          </mxGeometry>
        </mxCell>
        <mxCell id="VbtQJIsyjudvQoeWFnfu-46" value="" style="endArrow=open;endFill=1;endSize=12;html=1;rounded=0;exitX=0;exitY=0.5;exitDx=0;exitDy=0;entryX=1;entryY=0.5;entryDx=0;entryDy=0;" edge="1" parent="1" source="VbtQJIsyjudvQoeWFnfu-37" target="VbtQJIsyjudvQoeWFnfu-5">
          <mxGeometry width="160" relative="1" as="geometry">
            <mxPoint x="590" y="230" as="sourcePoint" />
            <mxPoint x="750" y="230" as="targetPoint" />
            <Array as="points">
              <mxPoint x="210" y="234" />
              <mxPoint x="210" y="65" />
            </Array>
          </mxGeometry>
        </mxCell>
      </root>
    </mxGraphModel>
  </diagram>
</mxfile>
